<?xml version="1.0" encoding="UTF-8"?><svg id="Layer_1" xmlns="http://www.w3.org/2000/svg" viewBox="0 0 117.8 27.02"><defs><style>.cls-1{fill:#fff;}.cls-2{fill:lime;}</style></defs><path class="cls-1" d="M27.51.34h2.46v18.98l-.61-1.29c-.28-.59-.87-.6-1.16-.04l-.69,1.33V.34Z"/><path class="cls-1" d="M32.65.34h2.51v12.1c0,2.59.09,4.42.27,5.5.18,1.07.54,2.04,1.07,2.9.53.86,1.19,1.52,1.97,1.97.78.45,1.66.67,2.66.67s1.92-.23,2.7-.7c.78-.46,1.43-1.12,1.95-1.97.52-.85.86-1.78,1.02-2.81.16-1.02.24-2.88.24-5.57V.34h2.55v12.67c0,3.65-.32,6.35-.95,8.11-.63,1.76-1.58,3.13-2.84,4.1-1.26.98-2.82,1.46-4.66,1.46s-3.3-.47-4.57-1.42c-1.27-.94-2.25-2.34-2.91-4.18-.67-1.84-1-4.6-1-8.28V.34Z"/><path class="cls-1" d="M63.19,15.6l-7.39,10.66h-3.89l9.31-13.44L52.83.77h3.94l6.43,9.22,6.38-9.22h3.94l-8.35,12,9.46,13.49h-3.98l-7.44-10.66Z"/><path class="cls-1" d="M79.18,1.51h3.28v4.27c2.28-3.28,5.21-4.92,8.77-4.92,1.9,0,3.59.52,5.09,1.56,1.49,1.04,2.5,2.5,3.01,4.39,1.06-1.92,2.41-3.39,4.05-4.41,1.64-1.02,3.42-1.53,5.35-1.53,2.35,0,3.88,2.64,5.61,4.24,1.74,1.59,3.11,2.9,3.11,7.6v13.47h-3.37l2.32-12.58c2.16-2.53-1.61-5.71-1.69-6.63-.1-1.1-.8-1.74-1.76-2.47s-3.51-2.6-4.99-2.6c-1.7,0-6.67-.1-7.27,1.87-.5,1.64-.94,3.91-1.45,5.49-.51,1.58.62,4.08.62,7.26v9.66h-3.23v-12.63c0-2.63-.14-4.51-.43-5.64-.29-1.13-.93-2.07-1.93-2.83-1-.76-2.22-1.14-3.66-1.14s-2.8.41-4.07,1.23c-1.27.82-2.27,1.94-2.99,3.37-.72,1.42-1.08,3.82-1.08,7.2v10.45h-3.28V1.51Z"/><path class="cls-1" d="M117.8.67v25.49h-2.52v-4.37c-2.28,3.49-4.95,5.23-8.01,5.23-2.81,0-5.22-1.34-7.24-4.01-2.02-2.67-3.03-5.86-3.03-9.58s1.02-6.84,3.05-9.48c2.03-2.64,4.46-3.96,7.29-3.96,3.26,0,5.9,1.78,7.93,5.33V.67h2.52ZM115.43,13.54c0-2.91-.76-5.37-2.29-7.37-1.53-2-3.4-3-5.6-3s-4.11,1.03-5.64,3.1c-1.53,2.06-2.29,4.49-2.29,7.27s.78,5.3,2.33,7.37c1.55,2.06,3.42,3.1,5.6,3.1s4.01-.99,5.56-2.98c1.55-1.98,2.33-4.48,2.33-7.49Z"/><ellipse class="cls-2" cx="28.51" cy="20.65" rx="1.26" ry="1.17"/><path class="cls-1" d="M27.73,16.41,29.59,22.04l-.84,1.04-.91,1.12c-3.48,3.5-9.32,2.4-11.34-2.13l-.52-1.17c-1.59,2.95-4.06,4.43-7.41,4.43C2.86,25.33,0,21.87,0,14.95V.37h3.82v13.96c0,5.14,1.94,7.72,5.81,7.72,1.88,0,3.42-.7,4.63-2.11s1.82-3.24,1.82-5.51V.37l2.81-.04v20.13h0c.91,3.7,5.83,4.31,7.59.95h0c-.25.99.77,1.82,1.67,1.36l1.44-.74Z"/></svg>